<svg width="434" height="435" viewBox="0 0 434 435" fill="none" xmlns="http://www.w3.org/2000/svg">
<path d="M142.17 289.841L149.208 310.895L158.412 306.153L148.862 286.252C148.862 286.252 142.625 289.493 142.17 289.841Z" fill="#79E1CF"/>
<path d="M187.734 230.115C199.549 226.766 210.982 222.18 221.842 216.435L275.592 224.917C275.592 224.917 285.424 230.637 286.615 230.811C289.979 230.536 293.348 231.295 296.273 232.986C300.236 235.749 308.162 235.749 310.22 236.097C313.19 237.061 316.029 238.398 318.666 240.077C320.723 241.295 329.862 244.231 331.421 245.275C332.98 246.319 336.575 247.45 337.441 251.8C338.652 257.145 339.378 262.592 339.607 268.069C339.433 272.049 338.416 282.772 336.856 286.926C335.297 291.081 328.584 312.7 328.194 315.201C327.804 317.703 327.003 334.581 326.029 338.061C325.054 341.541 320.355 359.811 319.532 363.138C318.709 366.466 312.472 383.04 311.432 385.976C310.393 388.912 308.834 394.284 309.267 396.525C309.893 398.952 310.068 401.473 309.787 403.963C309.44 406.747 311.692 420.406 310.999 421.363C310.306 422.32 286.182 423.429 277.758 420.841C269.334 418.253 235.724 421.885 222.102 421.189C208.481 420.493 172.489 420.145 167.335 419.014C162.181 417.883 155.792 417.644 158.889 414.186C161.986 410.727 162.332 405.877 162.506 401.136C162.959 396.849 163.822 392.619 165.083 388.499L154.255 314.005L170.15 281.38L187.734 230.115Z" fill="#BED4FC"/>
<path d="M337.268 208.799C339.975 210.713 339.629 210.3 337.268 210.605C334.908 210.909 333.674 210.996 333.392 212.54C333.161 213.798 332.805 215.029 332.331 216.216C332.221 216.133 332.118 216.039 332.028 215.933C327.696 209.539 331.053 211.192 323.105 210.539C321.525 210.539 325.877 209.06 327.155 206.189C327.632 205.124 325.401 201.143 326.657 201.839C330.468 203.862 329.234 203.123 329.71 203.405C331.14 204.297 335.384 200.795 337.009 200.317C337.507 203.84 333.5 206.015 337.268 208.799Z" fill="#FFEAB6"/>
<path d="M369.319 141.374C370.38 141.765 367.153 142.7 365.832 143.701C363.667 145.31 365.702 146.659 365.529 148.921C363.84 148.203 361.934 144.571 359.422 144.571C354.896 146.093 354.615 146.746 353.813 146.746C354.073 145.115 357.885 141.809 355.719 140.047C354.875 139.394 352.774 136.284 353.835 136.523C358.036 137.502 358.015 137.698 358.816 137.132C363.039 134.218 363.147 129.737 363.927 135.871C364.598 141.374 363.234 139.199 369.319 141.374Z" fill="#FFEAB6"/>
<path d="M364.057 69.7313C363.949 69.8835 363.862 70.0793 363.71 70.1445C358.253 72.972 357.885 72.624 358.21 74.4945C359.033 79.6493 358.838 78.8445 358.708 79.7363C352.926 74.4728 355.221 75.147 354.377 74.9948C352.774 74.7555 349.786 76.5608 346.905 77.1698C345.909 77.1698 346.299 76.9523 348.789 72.8198C351.54 68.3175 338.156 62.9888 349.764 66.2948C351.93 66.9255 351.54 66.621 355.481 61.2923C356.737 59.574 355.936 67.3388 358.859 67.5998C359.877 67.5998 361.285 68.8178 363.602 69.3398C363.774 69.4465 363.927 69.5785 364.057 69.7313Z" fill="#FFEAB6"/>
<path d="M140.049 164.43C151.05 161.951 140.049 165.431 142.496 169.563C144.51 173.13 145.333 172.804 141.413 171.934C136.865 170.912 138.923 170.607 134.202 175.414C133.639 176.001 134.31 173.609 134.483 171.347C134.678 168.65 129.481 167.78 128.723 166.366C129.091 166.366 128.441 166.366 131.776 166.04C135.891 165.692 133.942 163.364 135.739 159.667C137.212 160.95 138.728 164.713 140.049 164.43Z" fill="#FFEAB6"/>
<path d="M162.181 115.536C162.722 116.449 160.015 115.536 156.182 114.1C154.017 113.296 154.515 111.664 149.404 118.842C147.433 121.648 150.313 112.665 147.043 111.447C139.637 108.663 139.637 109.272 147.78 106.314C149.555 105.661 148.711 101.768 149.945 98.4186C157.676 105.683 151.158 105.074 162.462 102.464C160.795 106.945 157.33 108.228 159.322 110.555C160.428 112.122 161.385 113.789 162.181 115.536Z" fill="#FFEAB6"/>
<path d="M221.237 243.187C222.254 248.016 223.251 248.581 222.124 248.407C212.314 246.863 202.742 237.119 200.772 228.941C200.404 227.396 200.144 227.549 201.79 226.983C206.619 225.265 209.109 223.416 208.503 224.504C207.29 226.679 208.156 229.484 208.005 230.485C207.442 234.248 210.041 237.423 213.787 239.424C214.285 239.685 214.112 239.642 217.425 239.859C219.591 239.337 219.872 239.12 220.132 239.859C220.618 240.927 220.988 242.042 221.237 243.187Z" fill="#FFC6A6"/>
<path d="M298.418 77.6043C304.352 80.1056 306.019 80.4971 302.013 81.4976C299.501 80.8886 299.198 80.8451 297.682 77.7566C297.53 77.3651 298.006 77.4303 298.418 77.6043Z" fill="#E6FCFF"/>
<path d="M310.285 76.6463C310.653 76.6463 310.632 76.9073 310.48 77.103C309.592 78.2993 308.574 80.061 306.907 78.9953C302.576 76.1895 294.13 74.9063 296.447 71.274C297.4 69.795 296.62 71.4915 301.558 73.623C306.907 75.9285 308.834 76.8203 310.285 76.6463Z" fill="#E6FCFF"/>
<path d="M312.061 71.9489C313.382 72.0794 311.758 74.4502 309.657 74.4067C306.17 73.1887 295.667 69.3172 298.569 67.0117C298.916 66.7507 298.743 66.0112 299.241 66.0547C300.107 66.0547 298.959 66.9682 304.698 69.2737C310.437 71.5792 310.935 71.7749 312.061 71.9489Z" fill="#E6FCFF"/>
<path d="M301.211 61.4005C312.689 70.1004 317.236 65.62 313.771 69.6655C313.122 70.4267 310.61 69.1434 309.657 68.7954C305.022 67.0772 297.291 64.5977 301.211 61.4005Z" fill="#E6FCFF"/>
<path d="M331.573 45.9343C332.244 46.1301 331.746 47.7178 331.14 47.3916C328.844 46.2171 330.772 45.6733 331.573 45.9343Z" fill="#FFD152"/>
<path d="M308.681 39.976C307.49 40.9547 306.949 39.0625 307.729 38.845C307.988 38.7797 308.443 39.6062 308.681 39.976Z" fill="#FFD152"/>
<path d="M316.846 22.1857C343.678 22.0334 349.46 57.4859 321.567 60.6832C317.929 61.1182 317.236 60.0742 316.11 61.5314C314.074 64.4242 315.395 65.7292 313.728 65.2942C310.324 64.4207 307.079 63.0111 304.113 61.1182C301.362 59.4434 306.278 58.9432 304.849 55.8329C303.42 52.7227 303.355 55.0934 301.102 51.4829C290.686 34.8007 305.455 21.5549 316.846 22.1857ZM330.229 49.8952C331.594 53.2882 335.838 45.2624 332.568 44.1967C329.298 43.1309 328.432 45.4364 327.912 45.3059C322.888 44.1749 326.007 44.8274 323.105 43.3267C321.762 42.6307 320.701 44.2619 319.618 42.7177C317.907 40.2382 319.142 42.7177 311.107 39.4987C310.544 39.2812 310.241 38.4982 309.808 37.9762C309.375 37.4542 308.704 37.4542 307.902 37.2367C305.563 36.6059 304.221 41.4127 307.902 42.0434C308.292 42.0434 308.574 42.0434 308.444 42.7177C307.621 46.2629 312.407 49.2427 311.454 50.9609C310.16 53.4475 309.247 56.1168 308.747 58.8779C308.639 59.5304 309.223 59.1824 309.462 59.3782C310.371 60.1612 310.804 56.0722 313.143 51.6569C314.724 48.7207 310.133 45.7844 310.241 43.2614C310.371 40.0207 311.627 41.8694 314.572 42.8047C316.218 43.3267 317.474 42.8047 317.929 43.8922C318.223 44.4733 318.716 44.9291 319.315 45.1765C319.916 45.4241 320.584 45.4468 321.199 45.2407C323.191 44.7187 322.672 46.2629 325.01 46.7632C327.349 47.2634 327.328 47.1547 327.328 48.0247C327.328 48.3292 327.328 48.6554 326.959 48.7424C325.846 49.124 324.785 49.6427 323.798 50.2867C322.563 50.8739 323.105 49.8734 321.047 51.2219C317.951 53.2447 318.47 51.9614 317.171 52.9837C315.005 54.7454 310.263 59.7697 311.779 60.9659C313.295 62.1622 313.468 59.0302 316.543 56.2027C319.618 53.3752 319.142 54.7454 320.181 54.0277C322.347 52.6792 322.65 52.4834 322.975 52.4617C324.837 52.3094 326.266 50.7434 327.674 50.6129C329.58 50.4389 329.082 48.7642 329.493 48.8947C329.905 49.0252 330.078 49.5254 330.229 49.8952Z" fill="#FFD152"/>
<path d="M144.619 42.3032C144.959 43.4333 144.95 44.6406 144.592 45.7653C144.234 46.8898 143.545 47.8788 142.615 48.6011C141.685 49.3236 140.559 49.7454 139.385 49.8108C138.211 49.876 137.045 49.582 136.042 48.9672C135.038 48.3526 134.244 47.4462 133.765 46.3683C133.285 45.2904 133.143 44.0916 133.357 42.9307C133.57 41.7696 134.13 40.7014 134.962 39.8669C135.793 39.0324 136.858 38.4714 138.014 38.2577C139.417 38.0034 140.864 38.2748 142.082 39.0204C143.299 39.7659 144.202 40.9341 144.619 42.3032Z" fill="#9EDEFF"/>
<path d="M123.157 61.0304C124.11 59.9429 125.323 58.8554 125.907 60.3126C125.907 60.3126 106.222 82.4106 106.179 82.4541C104.576 81.3449 103.948 83.6069 123.157 61.0304Z" fill="#9EDEFF"/>
<path d="M136.215 80.2564C136.605 81.1916 136.432 80.8436 122.789 94.4156C122.096 95.1334 122.421 95.1116 121.663 84.2149C121.663 83.1926 130.325 76.3849 133.119 73.0354C135.912 69.6859 135.176 70.2514 136.215 80.2564Z" fill="#9EDEFF"/>
<path d="M112.481 52.2008C114.149 51.9833 109.428 55.833 105.984 61.053C105.205 62.184 102.259 66.1425 101.112 66.2948C101.112 66.2948 90.2838 66.621 90.2838 66.5558C89.9806 66.1425 95.7627 60.5963 101.112 54.441C101.783 53.4188 101.783 53.5928 112.481 52.2008Z" fill="#9EDEFF"/>
<path d="M165.126 20.6409C164.914 23.7186 164.242 26.7465 163.134 29.6237C157.915 42.4127 158.37 41.2599 156.941 38.6934C150.314 26.8397 141.132 25.6434 142.864 24.5777C147.256 21.3295 152.193 18.8986 157.439 17.4002C165.646 15.2252 164.737 17.4002 165.126 20.6409Z" fill="#FF8E92"/>
<path d="M296.512 179.894C294.844 174.173 298.959 159.753 300.193 156.556C301.868 150.792 302.353 144.745 301.623 138.786C300.756 131.978 295.992 120.451 293.48 114.861C290.968 109.271 280.053 98.9184 276.588 96.2214C273.123 93.5244 256.513 86.5209 250.601 83.9109C244.689 81.3009 234.056 80.7136 234.056 80.7136C232.47 78.7195 230.256 77.3257 227.776 76.7608C225.298 76.1956 222.701 76.4927 220.413 77.6034C213.916 80.4961 212.833 87.4561 212.27 87.6084C198.844 87.4561 196.96 98.3311 196.96 98.3311C191.979 103.399 193.365 106.596 195.444 109.924C197.523 113.252 204.258 113.339 204.258 113.339C204.258 113.339 245.209 104.399 257.704 123.974C270.2 143.549 265.284 175.478 265.284 175.478L265.63 207.19C267.614 209.082 270.093 210.365 272.779 210.894C275.462 211.422 278.241 211.17 280.79 210.169C273.015 204.21 274.509 200.817 274.509 200.817C286.29 208.125 291.488 200.817 291.488 200.817C289.486 200.424 287.609 199.545 286.025 198.256C284.439 196.965 283.192 195.307 282.392 193.422C285.862 194.479 289.446 195.113 293.068 195.314C302.749 196.249 304.914 190.964 304.914 190.964C304.914 190.964 298.158 185.614 296.512 179.894Z" fill="#FFB564"/>
<path d="M213.57 195.749C212.965 195.071 212.63 194.192 212.63 193.281C212.63 192.369 212.965 191.49 213.57 190.812C200.251 182.569 203.11 175.761 200.251 177.131C197.187 178.49 193.913 179.314 190.571 179.567C189.705 179.828 192.975 185.44 200.186 187.854C206.293 189.899 193.69 195.749 191.762 195.902C188.622 196.141 201.876 204.123 209.39 199.034C209.567 198.89 209.785 198.805 210.011 198.792C210.238 198.78 210.464 198.838 210.655 198.961C210.847 199.084 210.995 199.264 211.079 199.476C211.164 199.688 211.179 199.922 211.123 200.143C210.515 203.182 209.425 206.104 207.896 208.799C211.642 209.474 215.93 206.994 219.049 204.863C219.872 204.319 219.568 203.362 219.893 202.688C220.023 202.383 217.295 200.36 213.57 195.749Z" fill="#FFB564"/>
<path d="M179.462 222.545C183.425 230.81 183.598 230.397 182.624 230.745L138.598 245.339C138.078 245.339 138.793 246.579 129.004 227.135C128.506 226.156 125.886 227.483 156.789 217.086C162.159 215.281 167.27 213.476 173.009 211.583C174.481 211.105 173.247 209.626 179.462 222.545ZM173.55 229.614C172.619 228.005 171.883 229.114 170.735 229.157C170.453 229.157 142.409 237.857 140.417 238.814C139.442 239.228 138.554 240.533 139.745 240.837C140.2 240.946 171.883 231.55 173.55 229.614ZM166.75 220.436C167.443 220.088 167.92 218.87 166.447 218.565C166.187 218.565 164.52 219.065 162.116 219.674C153.562 221.849 152.371 223.459 150.162 223.415C147.607 223.415 147.715 224.459 143.903 225.308C135.241 227.243 136.649 228.07 134.332 228.179C134.05 228.179 133.595 228.853 133.509 229.114C133.314 229.897 135.674 230.354 136.8 229.723C139.208 228.423 141.838 227.59 144.553 227.265C148.126 226.634 147.996 225.482 150.097 225.59C154.103 225.047 155.619 223.415 159.257 222.502C162.896 221.588 163.978 221.849 166.75 220.436ZM161.055 228.374C161.417 228.398 161.776 228.291 162.067 228.072C162.357 227.851 162.559 227.535 162.636 227.178C162.636 224.677 153.973 228.657 149.88 229.353C146.156 229.984 137.688 232.463 136.454 233.812C135.588 234.769 136.064 235.313 137.233 235.378C141.565 233.899 140.98 233.703 142.539 233.203C151.548 230.658 145.354 232.746 154.905 229.984C159.236 228.809 159.517 228.374 161.055 228.374Z" fill="#FFF5DB"/>
<path d="M145.095 281.249C145.745 282.575 143.362 283.315 141.976 283.576C141.154 283.032 142.973 286.055 123.136 245.927C110.446 220.566 110.446 221.588 111.745 221.588C118.502 221.61 108.042 206.624 145.095 281.249Z" fill="#79E1CF"/>
<path d="M116.552 237.401C140.676 286.556 140.221 284.294 139.182 284.664C126.188 289.145 132.685 297.714 131.342 300.65C130.628 299.628 85.8652 207.517 85.562 206.755C85.9085 206.625 84.7391 206.038 103.71 217.413C109.795 221.067 106.265 216.412 116.552 237.401Z" fill="#79E1CF"/>
<path d="M183.209 213.303C175.825 197.925 176.323 198.839 175.717 199.056C169.22 201.384 135.22 212.715 129.482 214.608C115.34 219.306 116.228 218.392 117.094 220.089C150.228 285.143 145.247 281.467 149.037 280.445C153.476 280.336 150.509 287.753 150.661 288.144C150.813 288.536 151.895 291.254 152.502 291.037C153.81 290.466 155.147 289.964 156.508 289.536C159.569 289.081 162.551 288.195 165.365 286.904C171.429 283.794 171.516 293.56 163.849 297.323C161.776 298.59 159.548 299.583 157.223 300.281C156.833 300.281 156.746 300.585 156.92 300.933C158.479 304.239 158.089 303.978 159.085 303.978C170.779 303.978 169.393 302.086 177.493 300.368C179.875 299.846 180.87 302.782 179.94 304.718C179.723 305.153 180.091 305.109 180.545 304.979C180.545 304.979 219.526 293.386 221.215 292.842C222.904 292.298 222.103 294.256 183.209 213.303ZM184.075 232.464C183.729 232.595 143.45 246.015 138.599 247.45C136.801 247.254 137.148 248.233 127.121 227.288C125.778 224.504 124.003 225.809 173.356 209.322C175.305 208.67 175.219 209.322 177.926 214.89C185.244 229.985 186.847 231.507 184.075 232.464Z" fill="#79E1CF"/>
<path d="M300.843 340.256C303.008 343.497 303.506 338.407 285.51 363.92C283.559 366.572 281.448 369.1 279.187 371.489C276.133 375.034 273.686 378.993 268.857 382.712C257.553 391.412 249.085 389.237 239.232 377.644C237.739 375.098 236.678 372.319 236.092 369.423C234.684 363.702 232.172 362.115 230.418 355.633C225.827 338.69 230.829 256.823 231.284 256.41C233.146 254.691 230.245 255.54 226.065 250.059C222.665 245.709 224.246 241.054 217.403 229.875C217.265 229.572 217.062 229.306 216.807 229.094C216.551 228.883 216.251 228.733 215.93 228.657C214.609 228.439 215.692 230.157 216.298 231.506C217.208 233.485 215.345 232.224 214.999 232.202C214.111 232.093 213.505 233.115 216.536 234.899C216.905 235.116 217.901 235.138 218.161 235.486C218.415 235.972 218.597 236.492 218.702 237.03C218.702 237.335 218.702 237.422 218.42 237.444C216.038 237.726 214.999 238.227 213.028 236.552C211.902 235.595 209.888 233.42 209.931 231.941C210.04 227.591 209.303 225.416 213.028 223.241C214.479 222.436 214.739 221.066 214.826 219.456C214.977 216.498 217.944 218.108 219.157 214.258C220.889 208.777 228.815 213.606 227.667 210.539C224.159 201.295 213.158 195.314 214.674 192.66C216.103 190.333 221.322 194.661 222.665 196.227C226.866 200.991 234.576 207.472 235.269 211.996C235.702 214.715 237.586 215.65 239.47 222.001C242.87 233.398 246.725 238.248 247.179 250.842C247.894 270.417 268.012 345.541 268.034 345.607C268.597 346.781 269.94 346.281 269.875 345.063C269.095 330.468 260.996 314.373 262.988 314.265C266.273 314.036 269.559 314.682 272.517 316.135C274.509 317.636 286.81 328.62 287.892 329.642C292.613 333.862 297.616 335.297 300.843 340.256Z" fill="#FFC6A6"/>
<path d="M276.329 155.751C285.468 147.987 296.274 154.294 287.157 168.954C285.338 171.846 283.519 174.348 275.571 177.654C265.241 182.004 264.007 155.447 263.812 203.754C263.812 217.456 265.285 221.567 284.45 230.898C285.208 231.267 278.56 236.248 278.516 236.27C266.974 244.578 273.752 240.62 260.975 245.775C258.809 246.601 249.866 250.32 249.714 248.95C247.982 234.399 244.517 231.072 242.134 222.546C239.969 215.02 237.543 213.106 237.327 210.583C237.024 206.886 228.665 199.708 227.647 198.403C227.279 197.968 227.322 197.794 227.863 197.598C252.269 189.616 248.566 183.548 246.097 185.005C241.073 187.941 218.573 196.032 208.092 183.961C196.592 170.694 196.332 147.138 201.097 148.617C203.066 149.055 205.117 148.941 207.027 148.289C208.934 147.637 210.629 146.472 211.925 144.92C213.181 143.658 211.925 148.465 217.988 149.574C219.244 149.814 219.721 148.269 218.963 147.9C217.122 146.964 215.39 146.529 214.393 143.419C213.614 141.005 221.107 142.941 220.89 137.286C220.89 135.785 219.439 135.741 219.114 137.09C218.53 139.417 219.114 139.069 215.649 139.722C215.346 139.722 215.26 139.722 215.368 139.352C217.274 133.327 216.667 131.609 218.616 130.152C219.461 129.656 220.423 129.397 221.399 129.403C222.377 129.408 223.335 129.677 224.175 130.181C225.014 130.686 225.701 131.408 226.169 132.271C226.634 133.134 226.862 134.108 226.824 135.089C227.105 142.201 233.97 152.619 241.983 152.315C253.331 151.858 256.601 140.113 258.658 138.83C260.022 137.96 261.451 138.504 267.212 142.049C268.901 143.071 263.985 153.381 271.998 156.904C272.842 157.274 271.002 158.405 273.059 159.079C273.297 159.34 274.467 157.317 276.329 155.751ZM286.702 162.581C287.002 161.973 287.126 161.293 287.061 160.618C286.996 159.943 286.745 159.3 286.336 158.761C285.924 158.223 285.372 157.81 284.741 157.57C284.109 157.33 283.423 157.273 282.761 157.404C279.253 158.166 275.419 162.646 277.282 166.278C277.91 167.518 277.282 170.085 275.983 170.389C273.405 170.955 273.232 169.737 272.604 170.911C271.976 172.086 273.362 173.086 274.77 173.086C279.231 173.086 280.725 167.953 279.296 165.191C279.114 164.89 279.005 164.548 278.982 164.196C278.96 163.843 279.023 163.491 279.166 163.168C280.075 160.993 284.602 156.882 285.035 162.711C285.143 163.32 286.247 163.538 286.702 162.581ZM218.356 165.039C218.356 164.256 217.88 161.972 216.061 161.928C213.895 161.928 213.57 165.169 215.13 166.757C216.061 167.736 217.837 167.953 218.356 165.039Z" fill="#FFC6A6"/>
<path d="M183.36 327.141C189.683 331.491 188.709 327.337 185.655 347.956C184.176 356.852 182.1 365.637 179.44 374.252C178.834 376.035 179.743 369.141 179.44 361.833C179.137 351.915 168.959 335.341 167.876 335.733C165.71 336.45 170.041 338.995 175.325 353.698C178.942 364.008 177.036 378.189 174.503 381.973C171.211 386.845 168.352 388.911 160.058 387.65C156.337 387.086 152.867 385.428 150.084 382.885C147.301 380.342 145.331 377.027 144.423 373.36C143.253 368.532 141.347 362.964 142.257 357.113C146.588 325.793 143.989 340.3 149.403 347.782H150.378C150.075 345.411 149.858 345.607 146.956 336.037C146.047 332.992 146.025 332.557 145.072 331.948C140.979 329.382 141.737 328.968 140.936 324.618C140.438 321.987 137.211 322.683 137.623 318.985C137.735 317.943 137.581 316.888 137.176 315.922C136.771 314.954 136.127 314.108 135.305 313.461C133.811 312.047 134.158 307.871 136.756 305.152C141.391 300.324 141.91 298.17 146.415 294.821C147.13 294.277 147.303 294.473 153.973 292.907C155.424 292.559 154.536 292.211 157.589 291.667C165.754 290.188 167.811 287.317 167.724 289.144C167.537 290.616 166.946 292.004 166.016 293.157C165.087 294.31 163.856 295.18 162.462 295.669C160.706 296.695 158.848 297.534 156.918 298.17C143.924 301.128 144.617 309.872 146.74 307.371C149.512 304.108 149.1 303.434 150.14 305.348C150.919 306.783 150.53 306.131 147.974 308.436C145.809 310.394 138.575 316.266 142.084 315.744C142.582 315.744 142.863 315.418 147.454 311.547C150.724 308.763 152.045 306.261 162.613 306.153C168.699 306.153 173.441 303.347 177.578 302.542C179.159 302.216 178.747 307.305 167.659 310.307C165.24 311.28 162.73 312.009 160.166 312.482C158.139 312.583 156.184 313.27 154.536 314.461C153.02 315.897 151.894 316.636 152.673 317.441C152.955 317.745 153.215 317.985 153.626 317.55C156.247 314.809 158.954 314.94 164.454 313.83C166.1 313.504 165.754 312.678 168.374 312.417C171.054 311.954 173.708 311.344 176.322 310.59C178.487 310.59 176.82 315.201 165.494 319.594C160.015 321.769 157.438 322.356 155.51 325.249C154.991 326.032 154.558 327.207 155.51 327.642C157.091 328.359 156.138 325.032 161.791 322.965C162.765 322.617 163.003 322.53 163.35 326.88C164.086 336.32 160.621 340.452 160.34 344.28C160.34 344.802 160.946 345.477 161.596 344.672C162.579 342.542 163.454 340.365 164.216 338.147C169.067 323.574 157.719 318.833 172.878 323.509C179.743 325.641 180.696 325.314 183.36 327.141Z" fill="#FFC6A6"/>
<path d="M148.299 282.968C151.245 282.293 148.798 288.688 143.405 291.668C139.074 294.125 138.641 294.365 138.035 295.104C137.428 295.844 138.035 296.779 138.598 296.583C142.149 295.539 148.04 289.166 135.956 303.108C133.097 306.414 133.53 306.653 133.14 303.739C133.166 302.632 133.268 301.528 133.444 300.433C133.985 297.845 131.148 291.733 134.18 289.797C138.103 287.401 142.271 285.433 146.61 283.925C147.132 283.537 147.699 283.216 148.299 282.968Z" fill="#FFC6A6"/>
<path d="M202.092 121.798C202.092 121.494 203.824 113.098 205.947 110.031C208.069 106.965 215.345 99.1563 215.345 99.1563C215.345 99.1563 220.759 101.984 221.257 96.9813C221.257 96.9813 223.293 98.9171 225.589 95.3283C227.884 91.7396 233.883 92.1093 236.048 93.0663C238.214 94.0233 244.169 95.1108 247.461 100.657C250.753 106.203 262.035 125.539 264.049 128.323C266.063 131.107 272.452 139.198 267.709 140.568L259.047 135.609C259.047 135.609 256.037 126.757 248.479 125.496C240.921 124.234 231.934 123.473 228.252 129.846C228.252 129.846 220.997 125.496 215.952 130.128C215.952 130.128 214.804 123.321 208.502 122.255C202.2 121.189 202.092 121.798 202.092 121.798Z" fill="#FFC6A6"/>
<path d="M57.0634 163.516L56.0456 157.361L60.9181 161.493L67.1984 158.535L65.0761 165.56L69.5372 172.085L62.0876 170.802L59.1424 177.414L57.2583 169.475L50.7832 166.387L57.0634 163.516Z" fill="#FFEAB6"/>
<path d="M368.972 161.667C358.859 169.758 357.776 185.266 352.687 181.547C346.862 177.197 343.137 172.651 342.964 166.126C342.964 164.321 341.989 162.559 340.257 163.211C338.849 163.828 337.402 164.351 335.926 164.777C330.966 166.082 331.161 161.558 328.866 163.668C327.942 164.31 327.077 165.038 326.289 165.843C325.574 166.495 325.921 166.126 324.275 164.886C322.629 163.646 320.247 165.343 320.572 166.3C320.73 166.532 320.961 166.704 321.229 166.787C321.496 166.87 321.784 166.859 322.044 166.756C323.322 166.191 323.517 167.409 324.816 168.453C326.982 170.215 328.693 164.473 330.555 165.799C333.652 167.974 335.059 167.235 339.78 165.625C342.704 164.647 337.095 171.15 348.811 181.133C355.308 186.723 356.412 184.961 361.501 174.739C363.364 170.998 367.023 164.908 370.337 162.863C371.701 162.015 373.304 161.58 376.639 163.951C384.456 169.519 380.97 170.932 379.952 173.347C379.779 173.782 380.71 174.565 381.121 173.999C383.698 170.454 382.984 171.563 383.525 169.845C382.594 164.451 373.823 157.795 368.972 161.667Z" fill="#000001"/>
<path d="M365.724 133.938C365.551 132.85 365.204 131.762 364.988 130.697C364.963 130.439 364.86 130.195 364.694 129.997C364.528 129.799 364.306 129.656 364.057 129.588C363.212 129.327 363.104 129.805 360.202 133.263C357.625 136.33 359.163 135.808 352.839 134.242C352.491 134.304 352.16 134.444 351.872 134.651C351.583 134.858 351.343 135.127 351.172 135.438C350.738 136.069 350.782 136.308 352.709 139.44C354.355 142.115 354.875 141.463 354.095 142.616C350.002 148.771 348.161 150.794 355.698 148.031C360.029 146.465 359.856 146.226 360.484 146.857C363.407 149.793 367.435 154.752 367.673 150.598C367.776 148.968 367.525 147.336 366.937 145.813C366.634 144.247 372.589 143.442 372.936 141.202C372.964 141.105 372.974 141.003 372.963 140.902C372.95 140.801 372.919 140.704 372.867 140.616C372.817 140.528 372.75 140.452 372.667 140.392C372.585 140.332 372.493 140.289 372.394 140.267C364.143 137.33 366.699 140.202 365.724 133.938ZM365.833 143.66C363.667 145.269 365.703 146.618 365.529 148.88C363.84 148.162 361.934 144.53 359.422 144.53C354.896 146.052 354.615 146.705 353.814 146.705C354.073 145.073 357.885 141.768 355.719 140.006C354.875 139.353 352.774 136.243 353.835 136.482C358.036 137.461 358.015 137.657 358.816 137.091C363.039 134.177 363.147 129.696 363.927 135.83C364.598 141.354 363.234 139.092 369.319 141.311C370.315 141.724 367.197 142.659 365.833 143.66Z" fill="#000001"/>
<path d="M338.698 98.5705C338.871 107.271 344.306 111.621 335.211 110.446C321.265 108.619 318.471 105.248 319.792 115.427C319.965 116.797 320.03 116.362 313.295 119.103C309.917 120.495 311.455 122.213 313.295 121.495C319.446 118.972 322.153 118.602 321.958 115.905C321.525 111.142 320.918 110.294 322.716 110.598C334.865 112.556 336.922 113.013 339.109 112.773C347.641 111.86 336.77 98.2225 342.596 95.3733C346.689 93.3288 348.053 96.5913 367.695 104.443C368.778 104.878 369.86 105.313 370.207 104.291C370.553 103.269 369.557 103.203 369.016 102.986C349.526 94.96 351.518 94.5685 347.36 93.1983C346.445 92.7682 345.438 92.5737 344.429 92.6323C343.42 92.6908 342.442 93.0006 341.583 93.5336C340.724 94.0667 340.01 94.8062 339.506 95.6856C339.003 96.5648 338.725 97.5563 338.698 98.5705Z" fill="#000001"/>
<path d="M347.1 71.9272C345.476 74.6025 341.708 80.4315 345.194 79.5615C346.494 79.257 348.984 78.7785 349.525 78.561C352.839 77.43 352.947 76.9732 353.402 77.4517C357.733 81.8017 360.83 86.565 360.613 78.6045C360.483 74.8635 359.66 74.2545 360.721 73.8412C362.129 73.2322 364.923 71.6662 365.702 71.4705C368.366 70.6657 368.496 68.9257 367.348 68.4037C366.2 67.8817 363.017 67.2727 361.046 66.4245C357.906 65.0107 359.249 66.9465 357.235 58.9425C357.188 58.7043 357.067 58.4874 356.888 58.3224C356.712 58.1575 356.486 58.0533 356.246 58.0243C356.006 57.9953 355.762 58.0433 355.551 58.1613C355.34 58.2793 355.172 58.4615 355.069 58.6815C354.809 59.0295 353.9 60.3345 351.128 64.4235C350.478 65.4022 344.263 62.118 343.245 63.336C340.69 66.3157 347.945 70.5352 347.1 71.9272ZM349.699 66.4027C351.864 67.0335 351.474 66.729 355.416 61.4002C356.672 59.682 355.871 67.4467 358.794 67.7077C359.79 67.7077 361.22 68.9257 363.537 69.4477C363.723 69.5155 363.898 69.6109 364.056 69.7305C363.948 69.8827 363.862 70.0785 363.71 70.1437C358.253 72.9712 357.885 72.6232 358.209 74.4937C359.032 79.6485 358.837 78.8437 358.708 79.7355C352.925 74.472 355.221 75.1462 354.376 74.994C352.774 74.7547 349.785 76.56 346.905 77.169C345.909 77.169 346.299 76.9515 348.789 72.819C351.474 68.3602 338.091 63.075 349.699 66.4027Z" fill="#000001"/>
<path d="M295.906 76.908C295.808 77.7574 295.89 78.6176 296.144 79.4334C296.397 80.2494 296.819 81.003 297.379 81.6461C297.94 82.2892 298.627 82.8074 299.4 83.1675C300.172 83.5277 301.01 83.722 301.861 83.7375C305.023 84.0203 306.301 81.3015 307.492 81.5625C310.155 82.0845 312.278 79.1265 312.364 77.0168C312.364 75.9075 313.187 75.168 313.62 74.1023C314.054 73.0365 313.49 72.3623 314.054 72.1883C314.882 71.6159 315.55 70.8391 315.994 69.9326C316.437 69.0262 316.641 68.0204 316.587 67.0118C316.587 66.729 317.324 65.7285 316.587 64.8368C316.436 64.641 317.172 63.4665 317.345 63.2925C317.518 63.1185 338.135 64.7715 341.751 46.5233C347.035 19.8578 304.395 9.06978 296.447 34.6913C292.116 48.4808 303.377 55.7888 302.706 57.2025C300.952 60.8348 299.826 59.3775 299.176 60.9653C297.443 64.989 299.176 64.4888 298.245 64.989C295.126 66.5985 296.859 68.5778 295.776 69.339C294.931 69.9625 294.358 70.8894 294.177 71.9267C293.995 72.9639 294.219 74.0316 294.801 74.907C295.646 75.9075 296.079 76.125 295.906 76.908ZM302.013 81.4973C299.501 80.8883 299.198 80.8448 297.682 77.7563C297.487 77.3648 297.963 77.43 298.375 77.604C304.352 80.0835 306.019 80.475 302.013 81.4973ZM301.017 51.4823C290.6 34.887 305.348 21.5543 316.761 22.185C343.592 22.0328 349.374 57.4853 321.481 60.6825C317.843 61.1175 317.15 60.0735 316.024 61.5308C313.989 64.4235 315.31 65.7285 313.642 65.2935C310.237 64.4201 306.992 63.0105 304.027 61.1175C301.277 59.4428 306.192 58.9425 304.763 55.8323C303.334 52.722 303.356 55.0928 301.017 51.4823ZM301.125 61.4003C312.603 70.1003 317.15 65.6198 313.685 69.6653C313.036 70.4265 310.524 69.1433 309.571 68.7953C305.023 67.077 297.292 64.5975 301.212 61.4003H301.125ZM298.483 67.0118C298.829 66.7508 298.656 66.0113 299.154 66.0548C300.021 66.0548 298.873 66.9683 304.612 69.2738C310.35 71.5793 310.848 71.8403 311.975 71.949C313.101 72.0578 311.845 74.4503 309.679 74.4068C306.171 73.1888 295.689 69.3173 298.57 67.0118H298.483ZM296.317 71.3618C297.27 69.8828 296.491 71.5793 301.428 73.7108C306.777 76.038 308.705 76.908 310.091 76.734C310.459 76.734 310.437 76.995 310.285 77.1908C309.398 78.387 308.38 80.1488 306.712 79.083C302.489 76.125 294.13 74.907 296.447 71.2748L296.317 71.3618Z" fill="#000001"/>
<path d="M338.719 207.408C337.03 206.32 337.68 206.19 338.048 204.58C339.542 198.055 339.477 198.512 339.39 198.055C339.38 197.872 339.318 197.695 339.213 197.542C339.109 197.39 338.964 197.272 338.797 197.198C338.629 197.124 338.445 197.097 338.262 197.122C338.08 197.147 337.909 197.222 337.766 197.338C335.601 199.056 333.132 200.078 330.923 201.688C329.905 202.384 326.483 198.904 325.704 199.208C324.556 199.687 323.711 200.252 324.08 201.666C325.617 207.256 325.141 206.668 324.34 207.19C321.979 208.713 320.008 209.365 320.16 211.301C320.16 212.867 324.881 212.758 326.657 212.78C328.432 212.802 328.064 213.563 328.671 214.564C331.378 219.044 333.002 221.632 334.345 216.543C335.514 212.323 334.063 212.78 341.253 212.541C344.328 212.302 342.011 209.518 338.719 207.408ZM337.181 210.562C334.648 210.888 333.587 210.953 333.305 212.497C333.074 213.755 332.719 214.986 332.244 216.173C332.132 216.09 332.031 215.995 331.941 215.89C327.61 209.496 330.966 211.149 323.019 210.496C321.438 210.496 325.79 209.017 327.068 206.146C327.545 205.081 325.314 201.1 326.57 201.796C330.382 203.819 329.147 203.08 329.624 203.362C331.053 204.254 335.297 200.752 336.922 200.274C337.506 203.863 333.392 206.038 337.268 208.778C339.997 210.67 339.629 210.257 337.181 210.562Z" fill="#000001"/>
<path d="M314.573 236.836C308.423 233.574 303.464 236.01 295.884 231.703C293.708 230.172 291.061 229.463 288.413 229.702C286.572 230.181 270.59 223.177 267.147 215.565C266.418 213.58 266.037 211.481 266.021 209.366C265.869 207.713 273.969 214.803 281.808 210.932C282.012 210.861 282.191 210.733 282.322 210.562C282.456 210.392 282.537 210.187 282.557 209.973C282.577 209.757 282.537 209.54 282.438 209.348C282.34 209.156 282.189 208.996 282.003 208.887C279.164 207.691 276.771 205.629 275.16 202.993C274.9 202.558 274.597 201.688 275.593 202.362C284.407 208.387 295.971 201.949 292.441 200.187C289.303 199.388 286.516 197.568 284.515 195.011C284.082 194.467 284.515 194.554 284.775 194.706C291.272 197.621 300.41 197.208 305.565 192.227C308.25 189.617 299.631 188.508 297.747 178.329C295.863 168.15 302.078 161.472 303.161 144.094C303.724 135.046 297.011 118.277 292.766 112.013C281.223 95.0044 264.613 86.6959 243.889 80.7799C238.984 79.6458 233.869 79.7879 229.033 81.1931C228.166 81.5411 228.361 82.9766 229.401 82.8244C236.881 81.1658 244.701 82.1331 251.555 85.5649C260.001 89.5669 276.697 93.3514 289.366 111.252C317.172 150.402 282.869 169.977 300.042 187.855C303.659 191.618 304.179 191.009 302.468 192.031C299.4 193.755 295.913 194.578 292.403 194.409C288.891 194.241 285.499 193.084 282.609 191.074C281.267 190.204 279.881 191.074 280.595 192.705C283.606 200.013 290.925 200.97 289.041 201.623C279.079 204.994 275.051 198.861 273.644 198.078C270.655 196.468 270.114 202.993 278.343 209.279C280.054 210.584 265.674 209.475 265.804 204.755C266.995 164.996 263.184 182.439 274.683 180.83C284.234 179.46 295.256 165.866 292.614 156.274C290.839 149.901 284.97 150.641 283.497 149.575C269.226 139.287 261.646 136.112 257.51 129.587C252.616 121.887 234.36 119.234 227.928 128.304C227.69 128.652 227.495 128.739 227.17 128.304C226.577 127.587 225.84 127 225.012 126.58C224.182 126.16 223.276 125.914 222.348 125.859C221.421 125.804 220.493 125.941 219.62 126.26C218.748 126.58 217.949 127.075 217.274 127.716C216.992 128.021 216.862 128.021 216.754 127.586C215.628 122.931 209.326 120.735 204.15 120.452C203.349 120.452 203.197 120.735 205.276 115.319C205.666 114.318 207.918 114.101 211.253 116.493C214.263 118.364 212.163 111.36 207.377 111.469C205.211 111.469 213.7 102.138 215.021 100.594C215.714 99.8111 215.909 101.16 217.62 101.312C218.335 101.312 218.789 100.181 217.923 99.5066C206.814 90.8066 218.595 72.9281 229.076 78.6919C231.242 79.9316 232.303 77.6261 230.202 76.5169C222.796 72.8846 214.415 77.8436 212.076 85.9781C211.773 86.9786 211.708 85.8259 206.662 87.0004C204.403 87.5363 202.324 88.6639 200.64 90.2685C198.955 91.8731 197.722 93.8975 197.069 96.1354C196.776 97.1622 196.206 98.088 195.423 98.8106C190.442 104.205 192.824 111.078 198.498 112.796C198.909 112.926 200.534 113.122 200.664 112.361C201.01 111.099 199.992 111.078 199.191 110.838C191.611 108.555 196.051 98.3104 196.895 101.943C197.74 105.575 202.634 110.142 203.695 108.272C204.756 106.401 195.986 104.139 199.234 95.9831C201.79 89.4581 211.47 87.2831 211.448 89.8279C211.318 97.8754 214.87 98.5279 214.004 99.4414C209.672 103.987 207.507 105.597 204.843 111.252C204.652 111.74 204.289 112.141 203.825 112.383C200.555 113.905 199.342 118.908 200.599 118.168C203.284 116.363 202.418 116.472 201.746 119.843C201.421 121.431 199.256 119.973 193.799 122.931C184.075 128.325 188.796 141.136 197.069 146.813C200.209 148.988 190.875 152.011 200.144 174.348C200.187 174.42 200.212 174.502 200.218 174.586C200.223 174.67 200.209 174.754 200.174 174.831C200.14 174.908 200.088 174.975 200.023 175.028C199.958 175.08 199.88 175.115 199.797 175.131C196.392 176.671 192.705 177.486 188.969 177.524C187.67 177.393 187.713 178.829 188.103 179.873C191.33 188.573 200.274 189.378 198.585 190.378C191.763 194.467 191.915 193.706 190.095 194.141C189.76 194.174 189.451 194.338 189.236 194.599C189.022 194.86 188.919 195.196 188.948 195.533C188.796 197.295 190.16 198.295 192.066 199.665C200.209 205.494 208.221 201.84 208.633 202.232C207.992 204.425 206.958 206.48 205.579 208.3C202.591 212.106 211.102 212.65 218.183 208.17C218.311 208.137 218.445 208.137 218.573 208.17C218.331 209.75 217.983 211.313 217.533 212.846C216.494 216.304 213.874 215.021 212.877 218.61C211.99 221.937 195.185 226.592 192.997 227.984C192.283 228.419 192.802 228.745 186.262 215.325C176.994 196.381 177.6 196.403 175.218 197.208C169.674 198.991 171.602 199.926 168.137 192.858C166.361 189.225 125.843 199.839 113.412 214.695C110.792 217.957 112.373 218.762 113.261 217.957C113.759 217.522 117.224 210.649 136.714 202.188C145.96 198.165 155.72 195.455 165.711 194.141C166.837 194.01 166.383 193.684 168.613 198.643C169.176 199.905 115.037 216.674 113.694 218.392C112.351 220.11 109.363 219.567 110.272 218.871C110.473 218.733 110.615 218.524 110.667 218.285C110.719 218.046 110.679 217.798 110.554 217.587C106.223 207.517 101.285 206.712 101.891 204.537C101.891 204.124 99.9857 199.622 100.332 198.969C100.679 198.317 110.9 207.452 110.554 213.477C110.554 214.999 112.979 215.652 112.589 212.868C111.485 204.711 100.679 193.619 97.8201 197.142C97.322 197.73 99.4226 202.014 99.4659 203.298C98.08 202.884 90.4788 196.773 88.075 199.796C87.5336 200.448 87.7934 200.535 91.1717 206.799C92.0163 208.387 89.5909 206.604 87.1871 205.168C79.9757 200.818 82.8559 205.016 86.689 213.172C129.373 301.455 132.773 306.697 132.34 309.133C132.12 310.435 132.237 311.77 132.681 313.012C133.125 314.254 133.88 315.361 134.873 316.224C135.209 316.572 135.451 316.999 135.576 317.469C135.701 317.937 135.705 318.43 135.588 318.899C135.35 324.271 139.183 323.401 139.14 326.403C139.163 328.442 139.934 330.401 141.305 331.905C144.597 334.32 143.189 329.6 140.266 356.57C139.443 364.117 141.782 370.273 143.059 374.949C145.766 384.693 156.053 390.043 163.199 390.174C163.935 390.174 164.239 389.913 163.199 393.154C159.886 403.572 164.087 405.725 159.106 412.12C158.225 413.405 157.716 414.911 157.634 416.47C157.661 416.678 157.76 416.87 157.912 417.013C158.064 417.156 158.26 417.243 158.469 417.26C158.677 417.274 158.884 417.218 159.056 417.097C159.227 416.977 159.352 416.801 159.409 416.6C160.449 412.707 163.741 411.01 163.871 405.573C163.871 404.616 164 398.613 164.217 397.699C166.144 389.326 165.733 390.196 166.837 390.022C173.876 388.891 175.37 384.932 179.333 379.538C182.104 375.754 187.995 350.523 189.836 332.754C189.836 332.058 189.836 331.34 190.464 330.861C191.092 330.383 194.21 310.96 194.145 309.111C194.145 308.394 192.889 308.111 192.629 308.763C191.915 310.482 190.832 321.139 189.467 328.208C189.316 329.078 188.969 328.534 185.721 326.229C181.39 323.14 180.762 323.88 175.37 322.335C166.707 319.791 168.873 321.074 173.702 317.985C180.199 313.766 179.766 309.829 179.03 308.894C178.293 307.959 175.955 308.502 179.03 307.611C207.68 299.28 218.66 296.148 222.579 294.561C225.286 293.517 224.745 293.212 224.095 292.516C224.095 292.516 219.981 284.121 193.777 230.55C193.387 229.724 193.149 230.028 198.346 228.375C198.693 228.375 198.801 228.375 198.866 228.745C200.158 234.433 203.186 239.573 207.528 243.448C219.158 253.257 223.424 249.843 224.312 251.343C231.696 263.98 227.928 234.357 226.477 325.598C226.477 360.289 229.531 358.223 233.645 368.38C233.97 369.142 235.811 377.08 237.089 378.494C249.757 393.567 259.892 393.306 271.023 384.193C280.357 376.558 296.014 351.872 297.227 352.807C298.44 353.742 300.432 353.829 302.338 355.134C304.915 356.896 308.943 358.615 311.91 357.745C314.357 357.027 313.707 358.723 326.419 321.204C327.091 319.203 325.834 337.517 321.59 354.199C315.743 377.124 306.431 390.217 308.596 398.961C309.463 402.354 307.968 403.572 308.596 409.14C310.762 425.235 309.701 424.213 311.433 424.365C313.166 424.517 311.238 411.859 311.087 411.119C309.766 404.355 311.477 402.419 310.589 398.678C308.293 389.13 320.919 373.774 326.527 340.236C328.996 325.554 327.112 319.834 332.115 305.631C338.352 288.057 342.38 275.682 339.456 257.151C337.29 243.6 333.111 246.667 314.573 236.836ZM111.745 221.611C118.501 221.611 107.998 206.604 145.03 281.271C145.68 282.598 143.297 283.338 141.911 283.599C141.089 283.055 142.908 286.078 123.071 245.949C110.445 220.567 110.445 221.589 111.745 221.589V221.611ZM90.3488 201.405C93.2291 201.057 105.508 209.475 108.475 217.87C103.429 215.349 98.5856 212.442 93.987 209.17C93.5756 207.408 90.717 202.667 90.3488 201.384V201.405ZM131.343 300.672C130.629 299.628 85.8661 207.539 85.5629 206.778C85.9094 206.647 84.74 206.06 103.711 217.435C109.796 221.089 106.266 216.456 116.552 237.423C140.677 286.578 140.222 284.316 139.183 284.686C126.211 289.145 132.664 297.693 131.343 300.651V300.672ZM133.141 303.804C133.167 302.697 133.268 301.591 133.444 300.498C133.985 297.91 131.148 291.798 134.18 289.863C138.104 287.467 142.271 285.498 146.611 283.99C147.13 283.588 147.698 283.251 148.3 282.99C151.245 282.337 148.798 288.71 143.406 291.69C139.075 294.147 138.641 294.387 138.035 295.126C137.429 295.866 138.035 296.801 138.598 296.605C142.15 295.561 148.04 289.188 135.956 303.13C133.098 306.458 133.531 306.675 133.141 303.783V303.804ZM149.729 290.754C150.097 291.668 149.967 291.516 146.589 292.19C146.589 292.19 146.589 292.19 146.589 292.016C148.473 290.863 148.755 289.558 149.123 289.645C149.491 289.732 149.426 290.08 149.729 290.82V290.754ZM167.574 310.199C165.154 311.172 162.644 311.901 160.081 312.374C158.053 312.475 156.098 313.162 154.45 314.353C152.934 315.789 151.808 316.528 152.588 317.333C152.869 317.637 153.129 317.877 153.541 317.442C156.161 314.701 158.868 314.832 164.369 313.722C166.014 313.396 165.668 312.57 168.288 312.309C170.969 311.847 173.622 311.236 176.236 310.482C178.402 310.482 176.734 315.093 165.408 319.486C159.908 321.661 157.352 322.248 155.425 325.141C154.905 325.924 154.472 327.099 155.425 327.534C157.006 328.251 156.053 324.924 161.705 322.857C162.679 322.509 162.918 322.422 163.264 326.772C164 336.212 160.536 340.344 160.254 344.172C160.254 344.694 160.86 345.369 161.51 344.564C162.16 343.759 163.914 338.604 164.13 338.039C168.981 323.466 157.634 318.725 172.793 323.401C179.744 325.576 180.61 325.206 183.274 327.033C189.597 331.383 188.623 327.229 185.569 347.848C184.09 356.744 182.014 365.529 179.354 374.144C178.748 375.928 179.658 369.033 179.354 361.725C179.051 351.807 168.873 335.233 167.79 335.625C165.625 336.342 169.956 338.887 175.24 353.59C178.856 363.9 176.951 378.081 174.417 381.865C171.125 386.737 168.267 388.803 159.972 387.542C156.252 386.978 152.781 385.322 149.998 382.777C147.215 380.234 145.245 376.919 144.337 373.252C143.168 368.424 141.262 362.856 142.171 357.005C146.503 325.685 143.904 340.192 149.318 347.674H150.292C149.989 345.303 149.773 345.499 146.871 335.929C145.961 332.884 145.939 332.449 144.987 331.84C140.894 329.274 141.652 328.86 140.85 324.51C140.352 321.879 137.126 322.575 137.537 318.877C137.65 317.835 137.496 316.78 137.091 315.814C136.685 314.848 136.041 314 135.22 313.353C133.726 311.939 134.072 307.763 136.671 305.044C141.305 300.216 141.825 298.062 146.329 294.713C147.044 294.169 147.217 294.365 153.887 292.799C155.338 292.451 154.45 292.103 157.504 291.559C165.668 290.08 167.725 287.209 167.639 289.036C167.452 290.508 166.86 291.898 165.931 293.049C165.001 294.202 163.77 295.072 162.376 295.561C160.621 296.589 158.763 297.426 156.832 298.062C143.839 301.02 144.532 309.764 146.654 307.263C149.426 304 149.015 303.326 150.054 305.24C150.834 306.675 150.444 306.023 147.888 308.328C145.723 310.286 138.49 316.158 141.998 315.636C142.496 315.636 142.778 315.31 147.369 311.439C150.639 308.655 151.96 306.153 162.528 306.045C168.613 306.045 173.356 303.239 177.492 302.434C179.073 302.173 178.661 307.263 167.574 310.264V310.199ZM152.631 305.37C152.35 305.109 152.48 305.523 151.245 303C150.964 302.391 151.44 302.217 154.472 301.281C154.862 301.151 155.208 301.869 156.096 303.848C156.291 304.37 155.923 304.5 152.631 305.436V305.37ZM221.107 292.842C219.374 293.386 180.502 304.957 180.437 304.979C179.983 305.109 179.614 305.153 179.831 304.718C180.762 302.717 179.831 299.781 177.384 300.368C169.285 302.086 170.67 303.957 158.976 303.978C158.088 303.978 158.478 304.239 156.811 300.933C156.637 300.585 156.811 300.368 157.114 300.281C159.44 299.583 161.667 298.59 163.741 297.323C171.407 293.56 171.32 283.794 165.257 286.905C162.442 288.195 159.46 289.082 156.399 289.536C155.038 289.964 153.701 290.466 152.393 291.037C151.787 291.255 150.834 288.862 150.552 288.144C150.271 287.427 153.367 280.336 148.928 280.445C145.138 281.467 150.119 285.143 116.986 220.089C116.119 218.392 115.231 219.306 129.373 214.608C135.112 212.715 169.198 201.384 175.608 199.056C176.214 198.839 175.608 197.925 183.101 213.303C222.103 294.256 222.709 292.407 221.107 292.908V292.842ZM269.248 144.225C269.248 143.355 268.815 143.355 279.426 150.271C280.812 151.163 277.585 150.793 274.294 154.621C273.665 155.361 273.644 155.317 272.734 154.882C268.793 153.12 268.685 148.814 269.248 144.29V144.225ZM231.025 128.325C235.356 124.758 249.433 124.845 254.847 131.001C259.568 136.395 247.873 156.122 236.331 148.009C230.787 144.116 225.633 132.675 231.025 128.325ZM203.046 138.2C203.046 137.112 201.833 123.584 203.587 123.671C206.881 123.553 210.136 124.416 212.942 126.15C217.598 129.217 212.314 150.402 200.967 146.204C199.754 145.725 202.959 142.876 203.046 138.2ZM197.069 124.737C198.195 124.389 199.234 124.128 200.49 123.823C200.88 123.823 201.075 123.823 201.032 124.258C199.906 134.067 203.067 136.851 199.321 144.377C198.888 145.29 198.801 145.334 198.065 144.747C188.991 137.308 186.457 128.064 197.069 124.737ZM201.075 148.662C203.044 149.099 205.096 148.986 207.003 148.334C208.913 147.682 210.607 146.516 211.903 144.964C213.137 143.703 211.903 148.509 217.967 149.619C219.223 149.858 219.699 148.314 218.941 147.944C217.1 147.009 215.368 146.574 214.372 143.463C213.592 141.049 221.085 142.985 220.868 137.33C220.868 135.829 219.418 135.786 219.093 137.134C218.508 139.461 219.093 139.113 215.628 139.766C215.325 139.766 215.238 139.766 215.346 139.396C217.252 133.371 216.646 131.653 218.595 130.196C219.439 129.7 220.401 129.442 221.377 129.447C222.355 129.452 223.314 129.721 224.153 130.226C224.992 130.73 225.68 131.452 226.147 132.315C226.613 133.179 226.84 134.152 226.802 135.133C227.084 142.245 233.949 152.664 241.961 152.359C253.309 151.902 256.579 140.157 258.636 138.874C260.001 138.004 261.43 138.548 267.19 142.093C268.88 143.115 263.964 153.425 271.976 156.948C272.821 157.318 270.98 158.449 273.037 159.123C273.362 159.123 274.532 157.188 276.394 155.622C285.533 147.857 296.339 154.164 287.222 168.824C285.403 171.717 283.584 174.218 275.636 177.524C265.306 181.874 264.072 155.317 263.877 203.624C263.877 217.326 265.35 221.437 284.515 230.768C285.273 231.138 278.625 236.118 278.581 236.14C267.039 244.449 273.817 240.49 261.04 245.645C258.875 246.471 249.931 250.191 249.779 248.82C248.047 234.27 244.582 230.942 242.199 222.416C240.034 214.89 237.608 212.976 237.392 210.453C237.089 206.756 228.73 199.578 227.712 198.273C227.344 197.838 227.387 197.664 227.928 197.469C252.334 189.486 248.631 183.418 246.163 184.875C241.138 187.812 218.638 195.903 208.156 183.831C196.527 170.825 196.267 147.27 201.032 148.749L201.075 148.662ZM207.897 208.8C209.422 206.091 210.504 203.154 211.102 200.1C211.158 199.879 211.141 199.645 211.058 199.433C210.974 199.221 210.826 199.042 210.634 198.919C210.443 198.795 210.217 198.737 209.99 198.75C209.763 198.763 209.546 198.848 209.369 198.991C201.855 204.081 188.601 196.098 191.741 195.859C193.625 195.707 206.272 189.856 200.165 187.812C192.954 185.397 189.684 179.786 190.55 179.525C193.934 179.3 197.253 178.491 200.36 177.132C203.219 175.762 200.36 182.57 213.679 190.813C213.074 191.491 212.738 192.37 212.738 193.282C212.738 194.193 213.074 195.073 213.679 195.75C217.404 200.318 220.175 202.275 219.981 202.71C219.656 203.406 219.981 204.363 219.136 204.885C215.909 207.082 211.621 209.562 207.897 208.8ZM222.146 248.32C212.336 246.776 202.764 237.032 200.793 228.854C200.425 227.31 200.165 227.462 201.811 226.896C206.641 225.178 209.131 223.329 208.525 224.417C207.312 226.592 208.178 229.398 208.027 230.398C207.463 234.161 210.062 237.336 213.809 239.337C214.307 239.598 214.133 239.555 217.447 239.772C219.612 239.25 219.894 239.033 220.154 239.772C220.628 240.858 220.998 241.987 221.258 243.144C222.124 247.95 223.251 248.581 222.124 248.407L222.146 248.32ZM285.533 363.835C283.582 366.486 281.471 369.015 279.209 371.404C276.156 374.949 273.709 378.907 268.88 382.626C257.575 391.327 249.108 389.151 239.254 377.559C237.764 375.01 236.702 372.234 236.114 369.337C234.707 363.617 232.194 362.029 230.44 355.548C225.849 338.604 230.852 256.737 231.307 256.324C233.169 254.606 230.267 255.454 226.088 249.973C222.688 245.623 224.268 240.969 217.425 229.789C217.29 229.487 217.086 229.22 216.83 229.008C216.575 228.798 216.276 228.647 215.953 228.571C214.632 228.354 215.714 230.072 216.321 231.42C217.23 233.4 215.368 232.138 215.021 232.116C214.133 232.008 213.527 233.03 216.559 234.813C216.927 235.031 217.923 235.053 218.183 235.401C218.438 235.886 218.62 236.407 218.725 236.945C218.725 237.249 218.725 237.336 218.443 237.358C216.061 237.641 215.021 238.141 213.051 236.466C211.925 235.509 209.911 233.334 209.954 231.855C210.062 227.505 209.326 225.33 213.051 223.155C214.502 222.351 214.761 220.98 214.848 219.371C215 216.413 217.967 218.022 219.179 214.173C220.912 208.692 228.838 213.52 227.69 210.453C224.182 201.21 213.181 195.228 214.697 192.575C216.126 190.248 221.323 194.576 222.688 196.142C226.889 200.905 234.598 207.387 235.291 211.911C235.724 214.608 237.608 215.565 239.492 221.916C242.892 233.313 246.747 238.163 247.202 250.756C247.917 270.331 268.035 345.456 268.057 345.521C268.62 346.695 269.962 346.217 269.897 344.977C269.118 330.383 261.018 314.288 263.011 314.179C266.295 313.951 269.583 314.596 272.539 316.05C274.532 317.55 286.832 328.534 287.915 329.556C292.398 333.689 297.4 335.124 300.627 340.083C302.923 343.498 303.529 338.409 285.511 363.921L285.533 363.835ZM220.565 209.105C221.561 203.972 221.453 204.168 222.06 204.755C223.146 205.951 224.03 207.318 224.68 208.8C225.135 209.649 223.749 209.344 223.727 209.257C220.63 209.823 220.262 210.084 220.435 209.192L220.565 209.105ZM313.512 351.828C313.422 352.01 313.298 352.173 313.144 352.307C313.025 352.187 312.917 352.055 312.819 351.915C306.929 343.215 303.962 341.04 302.576 338.561C300.822 335.451 295.754 332.232 292.701 330.361C290.687 329.121 286.767 325.076 283.67 322.618C276.676 317.072 276.502 313.57 266.519 312.2C265.003 311.982 262.686 312.657 262.318 312.352C261.95 312.048 262.318 311.526 264.072 308.133C265.543 305.07 267.306 302.155 269.334 299.433C278.3 286.731 276.481 287.383 279.534 282.141C284.905 272.832 286.313 273.963 294.91 264.741C306.691 252.083 307.275 251.8 308.055 249.799C308.402 248.864 307.579 248.429 307.145 248.886C280.206 277.465 282.783 271.723 277.26 282.076C265.025 305.044 272.171 289.058 261.733 307.959C260.629 309.938 248.74 255.367 249.887 251.713C250.212 250.669 251.425 252.344 260.715 248.385C274.77 242.361 267.364 247.254 279.123 238.554C285.078 234.204 287.785 229.354 293.827 232.986C301.623 237.684 304.438 235.749 311.758 237.924C315.635 239.076 315.245 240.36 331.508 246.95C336.273 248.886 336.944 253.105 337.507 257.259C340.301 279.162 338.352 281.815 313.382 351.915L313.512 351.828Z" fill="#000001"/>
<path d="M308.011 42.0417C308.4 42.0417 308.682 42.0417 308.552 42.7159C307.729 46.2612 312.515 49.2409 311.562 50.9592C310.266 53.4457 309.355 56.115 308.855 58.8762C308.747 59.5287 309.332 59.1807 309.57 59.3764C310.479 60.1594 310.912 56.0704 313.251 51.6552C314.832 48.7189 310.241 45.7827 310.349 43.2597C310.479 40.0189 311.735 41.8677 314.681 42.8029C316.326 43.3249 317.582 42.8029 318.037 43.8904C318.331 44.4715 318.822 44.9274 319.423 45.1748C320.024 45.4224 320.692 45.445 321.307 45.2389C323.3 44.7169 322.78 46.2612 325.119 46.7614C327.457 47.2617 327.436 47.1529 327.436 48.0229C327.436 48.3274 327.436 48.6537 327.068 48.7407C325.954 49.1222 324.893 49.6409 323.906 50.2849C322.672 50.8722 323.213 49.8717 321.156 51.2202C318.059 53.2429 318.579 51.9597 317.279 52.9819C315.114 54.7437 310.371 59.7679 311.887 60.9642C313.403 62.1604 313.576 59.0284 316.651 56.2009C319.726 53.3734 319.25 54.7437 320.289 54.0259C322.455 52.6774 322.758 52.4817 323.083 52.4599C324.945 52.3077 326.375 50.7417 327.782 50.6112C329.688 50.4372 329.19 48.7624 329.601 48.8929C330.013 49.0234 330.013 49.4367 330.164 49.8064C331.529 53.2212 335.773 45.1737 332.503 44.1079C329.233 43.0422 328.367 45.3477 327.847 45.2172C322.823 44.0862 325.942 44.7387 323.04 43.2379C321.697 42.5419 320.636 44.1732 319.553 42.6289C317.842 40.1494 319.077 42.6289 311.042 39.4099C310.479 39.1924 310.176 38.4094 309.743 37.8874C309.31 37.3654 308.639 37.3654 307.837 37.1479C305.563 36.6042 304.221 41.3239 308.011 42.0417ZM331.572 45.9349C332.243 46.1307 331.745 47.7184 331.139 47.3922C328.843 46.2177 330.771 45.6739 331.572 45.9349ZM307.751 38.8444C308.011 38.8444 308.465 39.6057 308.704 39.9754C307.512 40.9542 306.949 39.1489 307.729 38.8444H307.751Z" fill="#000001"/>
<path d="M323.127 276.354C315.937 280.052 306.343 286.772 284.146 288.143C283.301 288.143 282.457 288.534 282.565 289.404C282.673 290.274 301.081 291.253 323.711 278.138C326.7 276.376 325.097 275.354 323.127 276.354Z" fill="#000001"/>
<path d="M287.525 282.294C299.111 278.661 314.01 267.069 313.057 265.807C311.173 263.393 306.409 273.093 286.897 280.749C286.204 281.01 286.507 282.076 287.525 282.294Z" fill="#000001"/>
<path d="M279.36 134.262C279.729 134.654 288.283 142.44 289.214 140.026C289.56 139.112 288.997 138.851 286.009 136.763C270.438 126.149 263.833 104.66 256.427 100.049C255.929 99.7448 255.517 100.941 255.712 101.311C257.414 103.195 258.957 105.217 260.325 107.357C269.399 121.93 267.146 120.973 279.36 134.262Z" fill="#000001"/>
<path d="M280.465 244.577C275.549 247.514 275.441 248.927 272.886 250.037C271.196 250.776 257.727 256.061 258.874 258.041C259.502 259.063 259.394 258.236 274.033 251.69C276.116 250.388 278.099 248.935 279.967 247.34C287.373 241.967 288.413 242.054 288.045 240.815C287.395 238.835 283.367 242.859 280.465 244.577Z" fill="#000001"/>
<path d="M274.834 173C279.295 173 280.79 167.867 279.36 165.105C279.178 164.804 279.07 164.462 279.046 164.109C279.025 163.757 279.088 163.404 279.23 163.082C280.14 160.907 284.666 156.796 285.099 162.625C285.099 163.321 286.225 163.539 286.702 162.625C287.003 162.018 287.128 161.338 287.063 160.663C286.998 159.988 286.745 159.344 286.335 158.806C285.926 158.267 285.373 157.854 284.742 157.614C284.11 157.375 283.424 157.317 282.76 157.449C279.252 158.21 275.419 162.691 277.281 166.323C277.909 167.563 277.281 170.129 275.982 170.434C273.405 170.999 273.232 169.781 272.604 170.955C271.976 172.13 273.362 173 274.834 173Z" fill="#000001"/>
<path d="M259.87 73.9497C260 72.4707 259.567 68.3165 263.227 67.316C266.172 66.4895 267.796 66.7722 269.117 64.4667C270.243 62.5092 269.117 61.9002 270.178 59.8775C273.73 53.3525 271.911 54.353 276.675 52.265C289.409 46.5882 278.84 39.3455 277.714 42.9995C277.13 44.7612 278.256 45.7617 279.014 44.0652C279.404 43.1735 283.54 46.3925 278.667 49.0677C274.163 51.5255 271.976 51.5037 270.763 54.614C269.55 57.7242 267.601 59.7035 267.666 62.5745C267.666 64.619 265.782 64.5537 263.595 64.9887C261.864 65.4647 260.348 66.5243 259.303 67.9897C258.258 69.4551 257.748 71.237 257.856 73.0362C257.899 76.9512 259.588 77.3427 259.87 73.9497Z" fill="#000001"/>
<path d="M232.584 91.5026C231.184 91.4699 229.79 91.736 228.5 92.2834C227.208 92.8308 226.046 93.6469 225.091 94.6781C223.813 96.0483 225.091 97.288 226.39 96.1788C227.36 95.1747 228.561 94.4297 229.89 94.0118C231.216 93.5938 232.627 93.5164 233.992 93.7863C250.19 95.9613 251.316 116.037 267.883 135.873C269.854 138.2 271.391 137.352 270.633 135.981C267.576 132.19 264.748 128.217 262.166 124.084C248.501 99.4631 247.18 93.6776 232.584 91.5026Z" fill="#000001"/>
<path d="M233.883 111.686C233.125 112.491 232.562 114.231 233.688 113.861C235.247 113.231 236.72 111.382 240.64 111.425C246.075 111.425 248.046 119.429 248.414 115.362C247.959 108.902 240.077 105.009 233.883 111.686Z" fill="#000001"/>
<path d="M237.629 137.285C238.799 137.285 238.864 136.502 239.167 135.306C238.82 133 237.001 133.131 236.568 134.457C236.135 135.784 236.352 137.22 237.629 137.285Z" fill="#000001"/>
<path d="M220.088 94.3943C220.088 95.8516 220.088 98.5051 221.583 98.2658C223.553 97.9613 220.305 94.2638 223.315 89.5658C223.649 88.9146 224.125 88.3464 224.705 87.9025C225.286 87.4586 225.957 87.1501 226.672 86.9993C226.923 86.8968 227.141 86.7305 227.309 86.5168C227.475 86.3033 227.585 86.05 227.625 85.7813C227.516 82.9103 220.002 86.0641 220.088 94.3943Z" fill="#000001"/>
<path d="M205.731 13.833C206.38 14.007 207.311 13.0718 208.351 12.8978C209.91 12.6368 214.046 12.5063 214.848 14.094C217.425 19.0748 208.697 25.2953 207.636 32.1683C206.965 36.5183 211.513 37.6493 218.464 39.585C224.463 41.238 213.288 48.9158 216.71 53.5485C217.273 54.288 218.876 55.7235 220.175 57.0938C223.445 60.5303 219.2 65.1195 221.344 65.5763C223.488 66.033 225.069 58.8555 221.344 55.2233C217.208 51.0473 216.775 52.5045 221.171 44.7833C222.319 42.7605 222.947 39.2153 220.435 38.1278C217.923 37.0403 218.269 37.845 212.249 35.496C203.067 31.9508 220.522 21.4238 216.385 13.224C215.432 10.875 213.418 11.136 210.668 10.875C205.124 10.7445 204.929 13.6155 205.731 13.833Z" fill="#000001"/>
<path d="M218.357 165.038C218.357 164.255 217.88 161.971 216.061 161.928C213.895 161.928 213.571 165.168 215.13 166.756C216.061 167.735 217.837 167.952 218.357 165.038Z" fill="#000001"/>
<path d="M210.451 133.61C210.278 131.435 208.567 131.435 208.285 132.261C206.921 134.719 209.758 137.025 210.451 133.61Z" fill="#000001"/>
<path d="M173.247 209.322C123.893 225.831 125.604 224.547 127.011 227.288C137.038 248.233 136.692 247.254 138.489 247.45C143.427 246.015 183.706 232.595 183.966 232.464C186.738 231.507 185.136 229.985 177.729 214.89C175.131 209.409 175.217 208.67 173.247 209.322ZM182.602 230.746L138.597 245.34C138.078 245.34 138.792 246.58 129.004 227.136C128.506 226.157 125.885 227.484 156.788 217.087C162.159 215.282 167.27 213.477 173.008 211.584C174.503 211.106 173.312 209.627 179.505 222.459C183.425 230.811 183.598 230.42 182.624 230.746H182.602Z" fill="#000001"/>
<path d="M170.735 229.157C170.454 229.157 142.41 237.857 140.417 238.814C139.443 239.227 138.555 240.532 139.746 240.837C140.136 240.837 171.818 231.55 173.486 229.614C172.619 228.004 171.883 229.114 170.735 229.157Z" fill="#000001"/>
<path d="M144.597 227.265C148.17 226.634 148.04 225.482 150.14 225.59C154.147 225.047 155.663 223.415 159.301 222.502C162.939 221.588 163.979 221.849 166.815 220.327C167.508 219.979 167.985 218.761 166.512 218.456C166.252 218.456 164.585 218.957 162.181 219.566C153.627 221.741 152.436 223.35 150.227 223.307C147.672 223.307 147.78 224.351 143.969 225.199C135.306 227.135 136.714 227.961 134.397 228.07C134.115 228.07 133.66 228.744 133.574 229.005C133.379 229.788 135.739 230.245 136.865 229.614C139.275 228.354 141.896 227.559 144.597 227.265Z" fill="#000001"/>
<path d="M151.916 118.733C155.077 114.513 153.215 115.122 163.632 118.733C163.848 118.833 164.091 118.862 164.326 118.815C164.56 118.769 164.773 118.648 164.935 118.471C165.096 118.294 165.198 118.071 165.224 117.832C165.251 117.594 165.201 117.353 165.082 117.145C163.942 114.66 162.625 112.261 161.141 109.967C160.253 108.836 164.823 103.943 164.909 101.267C165.039 97.3307 157.005 103.877 155.251 101.572C153.843 99.7232 151.699 97.6787 150.292 95.4384C149.664 94.4162 148.451 94.0464 148.256 95.2644C146.588 106.379 149.274 103.638 143.102 106.031C139.659 107.379 139.55 107.357 139.355 108.467C138.749 111.968 146.805 112.469 146.827 114.056C146.957 121.212 146.675 120.777 146.827 122.278C146.857 122.479 146.941 122.668 147.07 122.826C147.199 122.983 147.367 123.103 147.558 123.172C147.749 123.241 147.955 123.257 148.154 123.218C148.353 123.179 148.538 123.088 148.689 122.952C149.88 121.639 150.96 120.227 151.916 118.733ZM147.043 111.446C139.637 108.662 139.637 109.271 147.779 106.313C149.555 105.661 148.711 101.768 149.945 98.4182C157.676 105.683 151.158 105.074 162.462 102.464C160.795 106.944 157.33 108.227 159.322 110.555C160.436 112.12 161.4 113.788 162.202 115.535C162.744 116.449 160.037 115.535 156.204 114.1C154.038 113.295 154.536 111.664 149.425 118.841C147.433 121.647 150.313 112.664 147.043 111.446Z" fill="#000001"/>
<path d="M110.23 80.7134C111.269 79.5824 111.291 79.5824 112.244 80.7134C113.213 81.8717 113.949 83.209 114.409 84.6501C114.799 86.0421 113.326 85.3026 112.872 85.3244C110.706 85.3244 111.594 86.9556 112.135 87.2166C117.463 89.8049 119.758 83.6496 119.91 85.6724C120.148 88.4129 120.126 91.3926 120.256 94.9813C120.256 96.6126 121.577 97.8523 122.682 96.8518C123.786 95.8513 126.731 92.8499 130.911 88.7609C137.754 82.0401 138.036 82.2359 137.949 80.9091C136.953 66.3366 135.784 70.0341 140.548 64.8359C146.308 58.5936 157.872 45.8916 161.619 38.2791C167.401 26.7734 169.697 14.6587 164.304 14.0497C157.093 13.2449 144.554 19.5742 138.317 25.0769C133.844 28.9238 129.668 33.1045 125.822 37.5832C112.828 51.9164 116.51 49.5891 110.663 50.3721C98.9036 51.8946 103.018 49.3499 88.4005 65.3579C86.603 67.3371 87.8807 68.6856 89.0502 68.6856C92.56 68.3173 96.0917 68.2011 99.6182 68.3376C99.0063 68.9736 98.5565 69.749 98.3077 70.5973C98.0588 71.4457 98.018 72.342 98.1889 73.2096C98.6406 74.9335 99.5459 76.5035 100.809 77.7554C101.524 78.2121 102.044 77.4074 101.762 76.5591C101.632 76.1241 99.4017 72.8181 100.051 72.0134C100.701 71.2086 102.347 72.0134 107.133 75.6674C108.454 76.6679 105.92 77.6249 103.776 80.8004C102.542 82.6709 104.729 83.6279 105.314 84.0629C105.898 84.4979 106.44 84.5849 107.025 84.1716L110.23 80.7134ZM99.6182 95.3511C84.4591 119.276 81.0808 144.332 92.775 175.478C92.9915 176.022 93.7278 178.48 94.4641 177.979C96.803 176.435 84.4375 156.86 88.5088 128.063C92.2552 101.572 109.667 86.2814 110.165 83.9759C110.425 82.8449 110.013 82.3664 108.67 82.8884C105.353 86.8141 102.327 90.9795 99.6182 95.3511ZM106.375 72.6224C102.152 69.4251 100.484 70.8389 101.286 69.4686C101.676 68.7944 102.065 68.0331 102.693 68.3159C105.704 68.5769 106.743 69.7296 110.381 72.2091C111.009 72.6441 110.511 73.1226 109.515 74.1014C108.93 74.7539 109.06 74.6234 106.461 72.6224H106.375ZM106.115 82.4534C104.512 81.3441 103.798 83.6061 123.093 61.0296C124.046 59.9421 125.259 58.8546 125.843 60.3119C125.908 60.3771 106.223 82.4099 106.115 82.4534ZM117.701 84.6284C115.795 86.2596 117.506 84.6284 114.214 80.2784C112.698 78.2774 112.503 78.2774 112.785 77.9511C114.539 75.8849 114.171 74.9061 118.372 83.1494C118.805 83.7366 118.372 84.0629 117.766 84.5849L117.701 84.6284ZM122.725 94.4594C122.032 95.1771 122.357 95.1553 121.599 84.2586C121.599 83.2364 130.261 76.4286 133.055 73.0791C135.848 69.7296 135.22 70.2951 136.152 80.3001C136.606 81.1919 136.433 80.8439 122.79 94.4158L122.725 94.4594ZM142.93 24.5767C147.302 21.3355 152.216 18.9048 157.439 17.3992C165.647 15.2242 164.737 17.3992 165.127 20.6399C164.917 23.7177 164.245 26.746 163.135 29.6227C157.916 42.4116 158.371 41.2589 156.941 38.6924C150.315 26.8387 141.154 25.6859 142.93 24.5767ZM140.136 26.7517C142.908 24.1199 158.652 40.3671 156.378 43.4121C149.73 52.3731 126.601 78.4731 120.494 82.2359C119.223 79.7498 117.775 77.3584 116.163 75.0801C115.622 74.2754 115.557 74.8191 123.201 66.2714C127.533 61.3124 128.767 60.7469 127.251 58.8764C126.601 58.0716 124.869 56.8971 123.765 58.0281C122.66 59.1591 122.054 59.9204 116.618 66.1844C111.616 71.9264 112.655 71.2739 110.879 69.9254C103.733 64.5096 102.455 68.7726 107.025 62.9219C117.272 50.1659 128.31 38.0707 140.071 26.7082L140.136 26.7517ZM100.961 54.3741C101.849 53.3301 101.849 53.5041 112.482 52.1991C114.149 51.9816 109.428 55.8314 105.985 61.0514C105.205 62.1824 102.26 66.1409 101.112 66.2931C101.112 66.2931 90.2845 66.6194 90.2845 66.5541C89.8298 66.1626 95.6119 60.6164 100.961 54.3741Z" fill="#000001"/>
<path d="M154.905 230.07C159.236 228.809 159.517 228.417 161.055 228.395C161.417 228.419 161.776 228.312 162.066 228.093C162.357 227.873 162.559 227.556 162.636 227.199C162.636 224.698 153.973 228.678 149.88 229.374C146.156 230.005 137.688 232.484 136.454 233.833C135.588 234.79 136.064 235.334 137.233 235.399C141.565 233.92 140.98 233.724 142.539 233.224C151.591 230.744 145.354 232.832 154.905 230.07Z" fill="#000001"/>
<path d="M147.259 160.95C145.917 161.124 141.455 162.103 140.762 162.299C139.485 162.625 135.478 153.729 134.461 157.035C131.97 165.17 135.392 163.843 129.047 164.387C126.448 164.604 126.405 165.3 126.47 166.562C126.47 167.41 126.773 167.584 128.332 168.541C135.37 172.891 132.295 169.737 131.71 177.785C131.71 178.894 132.273 179.416 133.161 179.133C135.175 178.459 138.359 172.608 139.831 173.369C141.962 174.11 144.13 174.734 146.328 175.24C147.562 175.588 148.082 174.935 147.931 173.978C147.692 172.456 146.025 171.803 144.357 168.715C143.989 167.997 144.076 168.323 148.212 163.343C148.927 162.429 149.252 160.711 147.259 160.95ZM142.495 169.65C144.509 173.217 145.332 172.891 141.412 172.021C136.864 170.999 138.922 170.694 134.201 175.501C133.638 176.088 134.309 173.696 134.482 171.434C134.677 168.737 129.48 167.867 128.722 166.453C129.09 166.453 128.44 166.453 131.775 166.127C135.89 165.779 133.941 163.451 135.738 159.754C137.211 161.015 138.727 164.8 140.069 164.517C151.049 161.951 140.113 165.431 142.495 169.65Z" fill="#000001"/>
<path d="M139.162 51.8084C149.622 51.2647 148.885 35.8874 138.837 36.1267C127.771 37.4752 129.785 52.1999 139.162 51.8084ZM138.014 38.2582C138.858 38.1079 139.723 38.1471 140.55 38.3725C141.376 38.598 142.143 39.0044 142.794 39.5624C143.446 40.1207 143.967 40.8167 144.319 41.6008C144.671 42.3847 144.846 43.2373 144.831 44.0973C144.817 44.9573 144.613 45.8034 144.234 46.5748C143.855 47.3464 143.311 48.0241 142.641 48.5595C141.971 49.0949 141.191 49.4746 140.357 49.6717C139.524 49.8687 138.657 49.8779 137.819 49.6987C136.503 49.417 135.324 48.6844 134.486 47.6261C133.648 46.5679 133.202 45.2499 133.225 43.8979C133.248 42.5458 133.739 41.2439 134.612 40.2151C135.486 39.1863 136.689 38.4945 138.014 38.2582Z" fill="#000001"/>
<path d="M115.274 196.489C113.845 196.75 113.563 198.664 115.404 198.664C124.803 198.512 125.279 181.417 116.227 181.547C115.243 181.511 114.26 181.65 113.325 181.96C113.195 180.721 115.491 175.305 113.065 171.086C110.38 166.431 102.606 166.736 100.072 173.152C99.0993 175.927 98.6828 178.868 98.8463 181.806C99.0098 184.744 99.7502 187.619 101.025 190.269C101.523 191.248 102.779 190.682 102.476 189.377C95.9789 170.825 108.691 166.04 111.549 172.739C113.932 178.328 108.777 184.505 111.008 185.788C112.589 186.68 113.39 183.178 116.444 183.613C120.407 184.309 121.121 188.638 120.472 191.53C119.367 196.294 116.379 196.272 115.274 196.489Z" fill="#000001"/>
<path d="M92.8612 179.96C80.7555 159.993 77.7021 125.085 92.6663 96.6356C96.1083 90.5742 99.9652 84.7602 104.209 79.2356C106.223 77.2563 104.209 76.2123 103.104 77.4738C90.5657 92.3726 80.7339 113.949 80.7339 133.393C80.7339 161.886 87.837 175.762 91.3886 180.025C93.121 182.026 94.0089 181.852 92.8612 179.96Z" fill="#000001"/>
<path d="M82.8122 197.142C71.9842 200.557 73.2186 187.942 83.9383 192.313C84.0705 192.393 84.2187 192.444 84.3723 192.46C84.526 192.478 84.6814 192.46 84.828 192.411C84.9743 192.362 85.1082 192.281 85.2201 192.174C85.3322 192.067 85.4193 191.936 85.4758 191.791C86.0605 190.465 84.9128 190.138 83.8083 189.769C77.8963 187.789 84.4797 176.457 92.6656 190.291C93.3369 191.422 94.4847 190.639 94.2248 189.769C92.4923 183.57 85.5625 178.893 81.2313 182.7C80.3104 183.481 79.6943 184.565 79.4921 185.759C79.29 186.954 79.5149 188.181 80.1268 189.225C75.0161 189.355 73.6301 191.4 73.0454 194.075C71.876 200.383 81.9892 201.122 84.5663 198.643C85.5624 197.642 84.7395 196.533 82.8122 197.142Z" fill="#000001"/>
<path d="M68.108 158.491C67.7832 157.838 67.5667 156.577 66.0724 157.49C59.9871 161.209 61.2215 160.622 59.5756 158.86C57.1069 156.272 56.4788 155.272 55.2445 155.576C54.7031 155.728 54.833 156.838 54.9629 157.425C56.4572 164.385 56.9336 162.536 54.1184 163.58C53.4687 163.841 52.9056 164.146 50.2636 165.255C50.0148 165.369 49.804 165.553 49.6562 165.785C49.5084 166.016 49.4297 166.285 49.4297 166.56C49.4297 166.835 49.5084 167.104 49.6562 167.335C49.804 167.567 50.0148 167.751 50.2636 167.865C58.3196 170.888 56.5005 170.323 57.0419 173.737C57.6699 177.652 57.7782 178.631 58.6011 178.718C58.9366 178.764 59.2777 178.697 59.5713 178.527C59.8649 178.358 60.0948 178.097 60.2253 177.783C63.6036 169.54 61.3947 171.715 64.5565 172.28C69.9921 173.259 70.2736 173.803 71.0532 172.846C71.8329 171.889 70.252 170.475 69.4724 169.583C64.3616 163.667 65.8775 167.582 68.108 158.491ZM66.5055 170.388C65.3484 170.301 64.2246 169.96 63.2138 169.387C60.4852 168.496 60.4852 173.977 59.4024 174.912C59.1402 173.762 58.9951 172.589 58.9693 171.41C58.9693 169.018 57.6699 168.844 53.7286 166.669C52.8623 166.168 54.833 165.973 57.0636 164.842C59.2941 163.711 57.5183 161.536 57.475 160.013C57.475 159.1 58.9909 161.296 59.9438 162.493C61.4164 164.341 61.5896 161.405 65.7259 160.165C65.0329 163.754 62.6291 164.689 64.9463 167.169C68.3246 170.801 67.4151 170.475 66.5055 170.388Z" fill="#000001"/>
</svg>
