<svg width="201" height="133" viewBox="0 0 201 133" fill="none" xmlns="http://www.w3.org/2000/svg">
<path d="M108.706 3.35559L108.736 4.33475C109.06 15.0062 117.665 23.5654 128.338 23.8332L131.324 23.9082L128.338 23.9831C117.665 24.2509 109.06 32.8101 108.736 43.4816L108.706 44.4607L108.676 43.4816C108.352 32.8101 99.7473 24.2509 89.0743 23.9831L86.0878 23.9082L89.0743 23.8332C99.7473 23.5654 108.352 15.0062 108.676 4.33475L108.706 3.35559Z" fill="white"/>
<path d="M76.8559 86.8242L76.8826 87.7035C77.1738 97.286 84.9004 104.972 94.4844 105.212L97.1662 105.28L94.4844 105.347C84.9004 105.587 77.1738 113.273 76.8826 122.856L76.8559 123.735L76.8292 122.856C76.538 113.273 68.8114 105.587 59.2274 105.347L56.5457 105.28L59.2274 105.212C68.8114 104.972 76.538 97.286 76.8292 87.7035L76.8559 86.8242Z" fill="white"/>
<path d="M184.339 38.921C188.343 49.0049 183.048 61.3871 170.504 73.3584C158.023 85.2682 138.63 96.4899 115.269 104.148C91.9089 111.806 69.0977 114.42 51.1241 112.493C33.0578 110.557 20.2829 104.098 16.2793 94.0145C12.2758 83.9306 17.5702 71.5484 30.1149 59.5771C42.595 47.6673 61.9888 36.4456 85.3491 28.7876C108.709 21.1296 131.521 18.5157 149.494 20.4421C167.561 22.3785 180.336 28.8372 184.339 38.921Z" stroke="white" stroke-width="2"/>
</svg>
