<svg width="39" height="40" viewBox="0 0 39 40" fill="none" xmlns="http://www.w3.org/2000/svg">
<g clip-path="url(#clip0_80_191)">
<path d="M36.1131 0.5H2.8793C1.2873 0.5 0 1.75684 0 3.31074V36.6816C0 38.2355 1.2873 39.5 2.8793 39.5H36.1131C37.7051 39.5 39 38.2355 39 36.6893V3.31074C39 1.75684 37.7051 0.5 36.1131 0.5ZM11.5705 33.7338H5.78145V15.1174H11.5705V33.7338ZM8.67598 12.5809C6.81738 12.5809 5.3168 11.0803 5.3168 9.2293C5.3168 7.37832 6.81738 5.87773 8.67598 5.87773C10.527 5.87773 12.0275 7.37832 12.0275 9.2293C12.0275 11.0727 10.527 12.5809 8.67598 12.5809ZM33.2338 33.7338H27.4523V24.6846C27.4523 22.5289 27.4143 19.7486 24.4436 19.7486C21.4348 19.7486 20.9777 22.1023 20.9777 24.5322V33.7338H15.2039V15.1174H20.7492V17.6615H20.8254C21.5947 16.199 23.4838 14.6527 26.2945 14.6527C32.1522 14.6527 33.2338 18.507 33.2338 23.5191V33.7338V33.7338Z" fill="#C6DAFF"/>
</g>
<defs>
<clipPath id="clip0_80_191">
<rect width="39" height="39" fill="white" transform="translate(0 0.5)"/>
</clipPath>
</defs>
</svg>
