<svg width="39" height="40" viewBox="0 0 39 40" fill="none" xmlns="http://www.w3.org/2000/svg">
<g clip-path="url(#clip0_121_751)">
<path d="M19.5 4.01152C24.7102 4.01152 25.3272 4.03437 27.3762 4.12578C29.2805 4.20957 30.3088 4.52949 30.9943 4.79609C31.9008 5.14648 32.5559 5.57305 33.2338 6.25098C33.9193 6.93652 34.3383 7.58398 34.6887 8.49043C34.9553 9.17598 35.2752 10.2119 35.359 12.1086C35.4504 14.1652 35.4732 14.7822 35.4732 19.9848C35.4732 25.1949 35.4504 25.8119 35.359 27.8609C35.2752 29.7652 34.9553 30.7936 34.6887 31.4791C34.3383 32.3855 33.9117 33.0406 33.2338 33.7186C32.5482 34.4041 31.9008 34.823 30.9943 35.1734C30.3088 35.44 29.2729 35.76 27.3762 35.8438C25.3195 35.9352 24.7025 35.958 19.5 35.958C14.2898 35.958 13.6729 35.9352 11.6238 35.8438C9.71953 35.76 8.69121 35.44 8.00566 35.1734C7.09922 34.823 6.44414 34.3965 5.76621 33.7186C5.08066 33.033 4.66172 32.3855 4.31133 31.4791C4.04473 30.7936 3.7248 29.7576 3.64102 27.8609C3.54961 25.8043 3.52676 25.1873 3.52676 19.9848C3.52676 14.7746 3.54961 14.1576 3.64102 12.1086C3.7248 10.2043 4.04473 9.17598 4.31133 8.49043C4.66172 7.58398 5.08828 6.92891 5.76621 6.25098C6.45176 5.56543 7.09922 5.14648 8.00566 4.79609C8.69121 4.52949 9.72715 4.20957 11.6238 4.12578C13.6729 4.03437 14.2898 4.01152 19.5 4.01152ZM19.5 0.5C14.2061 0.5 13.5434 0.522852 11.4639 0.614258C9.39199 0.705664 7.96758 1.04082 6.73359 1.5207C5.44629 2.02344 4.35703 2.68613 3.27539 3.77539C2.18613 4.85703 1.52344 5.94629 1.0207 7.22598C0.54082 8.46758 0.205664 9.88437 0.114258 11.9562C0.0228516 14.0434 0 14.7061 0 20C0 25.2939 0.0228516 25.9566 0.114258 28.0361C0.205664 30.108 0.54082 31.5324 1.0207 32.7664C1.52344 34.0537 2.18613 35.143 3.27539 36.2246C4.35703 37.3063 5.44629 37.9766 6.72598 38.4717C7.96758 38.9516 9.38438 39.2867 11.4563 39.3781C13.5357 39.4695 14.1984 39.4924 19.4924 39.4924C24.7863 39.4924 25.449 39.4695 27.5285 39.3781C29.6004 39.2867 31.0248 38.9516 32.2588 38.4717C33.5385 37.9766 34.6277 37.3063 35.7094 36.2246C36.791 35.143 37.4613 34.0537 37.9564 32.774C38.4363 31.5324 38.7715 30.1156 38.8629 28.0438C38.9543 25.9643 38.9771 25.3016 38.9771 20.0076C38.9771 14.7137 38.9543 14.051 38.8629 11.9715C38.7715 9.89961 38.4363 8.4752 37.9564 7.24121C37.4766 5.94629 36.8139 4.85703 35.7246 3.77539C34.643 2.69375 33.5537 2.02344 32.274 1.52832C31.0324 1.04844 29.6156 0.713281 27.5438 0.621875C25.4566 0.522852 24.7939 0.5 19.5 0.5Z" fill="#2168FF"/>
<path d="M19.5 9.9834C13.9699 9.9834 9.4834 14.4699 9.4834 20C9.4834 25.5301 13.9699 30.0166 19.5 30.0166C25.0301 30.0166 29.5166 25.5301 29.5166 20C29.5166 14.4699 25.0301 9.9834 19.5 9.9834ZM19.5 26.4975C15.9123 26.4975 13.0025 23.5877 13.0025 20C13.0025 16.4123 15.9123 13.5025 19.5 13.5025C23.0877 13.5025 25.9975 16.4123 25.9975 20C25.9975 23.5877 23.0877 26.4975 19.5 26.4975Z" fill="#2168FF"/>
<path d="M32.2512 9.58726C32.2512 10.8822 31.2 11.9257 29.9127 11.9257C28.6178 11.9257 27.5742 10.8746 27.5742 9.58726C27.5742 8.29234 28.6254 7.24878 29.9127 7.24878C31.2 7.24878 32.2512 8.29995 32.2512 9.58726Z" fill="#2168FF"/>
</g>
<defs>
<clipPath id="clip0_121_751">
<rect width="39" height="39" fill="white" transform="translate(0 0.5)"/>
</clipPath>
</defs>
</svg>
